
<svg xmlns="http://www.w3.org/2000/svg" version="1.1" xmlns:xlink="http://www.w3.org/1999/xlink" preserveAspectRatio="none" x="0px" y="0px" width="550px" height="400px" viewBox="0 0 550 400">
<defs>
<!--<g id="Layer0_0_STROKES_1_FILL">-->
<!--<path fill="#000000" stroke="none" d="-->
<!--M 116.4 142.7-->
<!--L 116.65 142.85 118.15 143.55-->
<!--Q 118.25 143.65 118.25 143.5 118.35 143.4 118.2 143.4-->
<!--L 116.75 142.65 116.45 142.55-->
<!--Q 116.35 142.45 116.35 142.6 116.25 142.7 116.4 142.7-->
<!--M 103.2 142.65-->
<!--L 101.8 143.4-->
<!--Q 101.65 143.4 101.75 143.5 101.75 143.65 101.85 143.55-->
<!--L 103.3 142.85 103.55 142.7-->
<!--Q 103.7 142.7 103.6 142.6 103.6 142.45 103.5 142.55-->
<!--L 103.2 142.65-->
<!--M 74.85 87.75-->
<!--L 71.3 79.85-->
<!--Q 71.3 79.7 71.2 79.8 71.05 79.8 71.15 79.9-->
<!--L 74.7 87.8-->
<!--Q 74.7 87.95 74.8 87.85 74.95 87.85 74.85 87.75-->
<!--M 148.85 79.8-->
<!--Q 148.75 79.7 148.75 79.85-->
<!--L 145.15 87.75-->
<!--Q 145.05 87.85 145.2 87.85 145.3 87.95 145.3 87.8-->
<!--L 148.9 79.9-->
<!--Q 149 79.8 148.85 79.8 Z"/>-->
<!--</g>-->

<path id="Layer0_0_1_STROKES" stroke="#000000" stroke-width="1" stroke-linejoin="round" stroke-linecap="round" fill="none" d="
M 865.8 248.5
Q 866 248.4 866.2 248.25 865.95 248.1 865.75 247.95 858.75 243.25 852.25 239.25 841.75 232.75 832.55 228.1 800.25 211.85 784.25 218.35 773.6 222.7 771.1 237.1 768.85 250.3 773.6 270.7 777.55 287.6 784.9 305.5 791.25 321.05 800.15 337.3 804.1 344.6 808.6 352.05 809.7 353.85 810.8 355.65 816.75 365.35 822.65 373.8 844.9 405.7 866.2 419.4 893.05 402.1 921.55 355.65 949.45 310.3 958.75 270.7 963.5 250.3 961.25 237.1 958.75 222.7 948.1 218.35 933.05 212.25 903.65 226.25 887.3 234 866.6 247.95 866.4 248.1 866.2 248.25 866.35 248.4 866.55 248.5
L 867.85 249.4
Q 870 250.9 872.25 252.45
M 108.8 210
Q 109.4 209.9 110 209.85 97.75 208.25 83.2 195.55 69.1 183.35 55 162.65 41.55 142.85 30.85 119.55 20 96.15 14.55 74.8 8.8 52.25 10.35 36.7 12 19.8 22.15 13.75 46 -0.5 110 46.8 174 -0.5 197.9 13.75 208.05 19.8 209.7 36.7 211.2 52.25 205.5 74.8 200.05 96.15 189.25 119.55 178.5 142.85 165.05 162.65 150.9 183.35 136.85 195.55 122.35 208.25 110 209.85 110.65 209.9 111.25 210
M 112.35 10.8
Q 112.15 10.4 112 10"/>
</defs>

<g transform="matrix( 1, 0, 0, 1, 0,0) ">
<use xlink:href="#Layer0_0_1_STROKES"/>

<!--<use xlink:href="#Layer0_0_STROKES_1_FILL"/>-->
</g>
</svg>
